<svg width="43" height="43" viewBox="0 0 43 43" fill="none" xmlns="http://www.w3.org/2000/svg">
<path d="M7.16666 35.8333C6.18125 35.8333 5.3302 35.4899 4.61354 34.8031C3.92673 34.0864 3.58333 33.2354 3.58333 32.25V10.75C3.58333 9.76457 3.92673 8.92846 4.61354 8.24166C5.3302 7.52499 6.18125 7.16666 7.16666 7.16666H35.8333C36.8187 7.16666 37.6549 7.52499 38.3417 8.24166C39.0583 8.92846 39.4167 9.76457 39.4167 10.75V32.25C39.4167 33.2354 39.0583 34.0864 38.3417 34.8031C37.6549 35.4899 36.8187 35.8333 35.8333 35.8333H7.16666ZM21.5 23.2917L35.8333 14.3333V10.75L21.5 19.7083L7.16666 10.75V14.3333L21.5 23.2917Z" fill="#1D1B20"/>
</svg>
