<svg width="39" height="40" viewBox="0 0 39 40" fill="none" xmlns="http://www.w3.org/2000/svg">
<path d="M34.125 19.1667C34.1306 21.3664 33.6295 23.5365 32.6625 25.5C31.516 27.8529 29.7533 29.832 27.5721 31.2155C25.3909 32.599 22.8771 33.3323 20.3125 33.3333C18.1677 33.3391 16.0519 32.8251 14.1375 31.8333L4.875 35L7.9625 25.5C6.99551 23.5365 6.49441 21.3664 6.5 19.1667C6.50099 16.5363 7.21599 13.9581 8.56492 11.7209C9.91384 9.48375 11.8434 7.67595 14.1375 6.5C16.0519 5.50822 18.1677 4.99427 20.3125 5H21.125C24.5121 5.19165 27.7112 6.65794 30.1099 9.1181C32.5085 11.5783 33.9381 14.8594 34.125 18.3333V19.1667Z" stroke="#1E1E1E" stroke-width="4" stroke-linecap="round" stroke-linejoin="round"/>
</svg>
