<svg width="39" height="40" viewBox="0 0 39 40" fill="none" xmlns="http://www.w3.org/2000/svg">
<g clip-path="url(#clip0_7_27)">
<path d="M19.5 25C22.1924 25 24.375 22.7614 24.375 20C24.375 17.2386 22.1924 15 19.5 15C16.8076 15 14.625 17.2386 14.625 20C14.625 22.7614 16.8076 25 19.5 25Z" stroke="#1E1E1E" stroke-width="4" stroke-linecap="round" stroke-linejoin="round"/>
<path d="M31.525 25C31.3087 25.5027 31.2442 26.0603 31.3397 26.601C31.4353 27.1416 31.6866 27.6405 32.0612 28.0333L32.1588 28.1333C32.4609 28.4429 32.7006 28.8105 32.8642 29.2152C33.0277 29.6198 33.1119 30.0536 33.1119 30.4917C33.1119 30.9297 33.0277 31.3635 32.8642 31.7681C32.7006 32.1728 32.4609 32.5404 32.1588 32.85C31.8569 33.1599 31.4985 33.4058 31.1039 33.5735C30.7094 33.7413 30.2865 33.8276 29.8594 33.8276C29.4323 33.8276 29.0094 33.7413 28.6148 33.5735C28.2203 33.4058 27.8618 33.1599 27.56 32.85L27.4625 32.75C27.0795 32.3658 26.5931 32.108 26.066 32.01C25.5388 31.9119 24.9951 31.9781 24.505 32.2C24.0244 32.4113 23.6145 32.7621 23.3257 33.2092C23.037 33.6564 22.8821 34.1803 22.88 34.7167V35C22.88 35.884 22.5376 36.7319 21.9281 37.357C21.3186 37.9821 20.492 38.3333 19.63 38.3333C18.768 38.3333 17.9414 37.9821 17.3319 37.357C16.7224 36.7319 16.38 35.884 16.38 35V34.85C16.3674 34.2983 16.1933 33.7633 15.8803 33.3145C15.5673 32.8657 15.1299 32.5238 14.625 32.3333C14.1349 32.1115 13.5912 32.0453 13.064 32.1433C12.5369 32.2413 12.0505 32.4991 11.6675 32.8833L11.57 32.9833C11.2682 33.2932 10.9097 33.5391 10.5152 33.7069C10.1206 33.8746 9.69773 33.9609 9.27062 33.9609C8.84352 33.9609 8.42061 33.8746 8.02607 33.7069C7.63153 33.5391 7.27309 33.2932 6.97125 32.9833C6.66908 32.6737 6.42936 32.3061 6.26581 31.9015C6.10225 31.4968 6.01807 31.063 6.01807 30.625C6.01807 30.1869 6.10225 29.7532 6.26581 29.3485C6.42936 28.9439 6.66908 28.5762 6.97125 28.2667L7.06875 28.1667C7.44337 27.7739 7.69468 27.275 7.79026 26.7343C7.88584 26.1936 7.82131 25.636 7.605 25.1333C7.39901 24.6404 7.05698 24.22 6.62101 23.9238C6.18503 23.6277 5.67415 23.4688 5.15125 23.4667H4.875C4.01305 23.4667 3.1864 23.1155 2.5769 22.4903C1.96741 21.8652 1.625 21.0174 1.625 20.1333C1.625 19.2493 1.96741 18.4014 2.5769 17.7763C3.1864 17.1512 4.01305 16.8 4.875 16.8H5.02125C5.55912 16.7871 6.08076 16.6085 6.51836 16.2875C6.95596 15.9665 7.28929 15.5179 7.475 15C7.69131 14.4973 7.75584 13.9397 7.66026 13.399C7.56468 12.8583 7.31337 12.3595 6.93875 11.9667L6.84125 11.8667C6.53908 11.5571 6.29936 11.1895 6.13581 10.7848C5.97225 10.3801 5.88807 9.94637 5.88807 9.50832C5.88807 9.07027 5.97225 8.63651 6.13581 8.23185C6.29936 7.82719 6.53908 7.45957 6.84125 7.14999C7.14309 6.84007 7.50153 6.5942 7.89607 6.42646C8.29061 6.25871 8.71352 6.17237 9.14062 6.17237C9.56773 6.17237 9.99064 6.25871 10.3852 6.42646C10.7797 6.5942 11.1382 6.84007 11.44 7.14999L11.5375 7.24999C11.9205 7.63422 12.4069 7.89197 12.934 7.99C13.4612 8.08803 14.0049 8.02185 14.495 7.79999H14.625C15.1056 7.58872 15.5155 7.23792 15.8043 6.79076C16.093 6.34361 16.2479 5.81963 16.25 5.28332V4.99999C16.25 4.11593 16.5924 3.26809 17.2019 2.64297C17.8114 2.01785 18.638 1.66666 19.5 1.66666C20.362 1.66666 21.1886 2.01785 21.7981 2.64297C22.4076 3.26809 22.75 4.11593 22.75 4.99999V5.14999C22.7521 5.6863 22.907 6.21028 23.1957 6.65743C23.4845 7.10458 23.8944 7.45538 24.375 7.66666C24.8651 7.88851 25.4088 7.95469 25.936 7.85666C26.4631 7.75863 26.9495 7.50088 27.3325 7.11666L27.43 7.01666C27.7318 6.70673 28.0903 6.46087 28.4848 6.29312C28.8794 6.12538 29.3023 6.03903 29.7294 6.03903C30.1565 6.03903 30.5794 6.12538 30.9739 6.29312C31.3685 6.46087 31.7269 6.70673 32.0287 7.01666C32.3309 7.32623 32.5706 7.69386 32.7342 8.09852C32.8977 8.50318 32.9819 8.93694 32.9819 9.37499C32.9819 9.81304 32.8977 10.2468 32.7342 10.6515C32.5706 11.0561 32.3309 11.4237 32.0287 11.7333L31.9312 11.8333C31.5566 12.2261 31.3053 12.725 31.2097 13.2657C31.1142 13.8063 31.1787 14.364 31.395 14.8667V15C31.601 15.4929 31.943 15.9134 32.379 16.2095C32.815 16.5056 33.3258 16.6645 33.8487 16.6667H34.125C34.987 16.6667 35.8136 17.0178 36.4231 17.643C37.0326 18.2681 37.375 19.1159 37.375 20C37.375 20.884 37.0326 21.7319 36.4231 22.357C35.8136 22.9821 34.987 23.3333 34.125 23.3333H33.9787C33.4558 23.3355 32.945 23.4944 32.509 23.7905C32.073 24.0866 31.731 24.507 31.525 25Z" stroke="#1E1E1E" stroke-width="4" stroke-linecap="round" stroke-linejoin="round"/>
</g>
<defs>
<clipPath id="clip0_7_27">
<rect width="39" height="40" fill="white"/>
</clipPath>
</defs>
</svg>
