<svg width="39" height="40" viewBox="0 0 39 40" fill="none" xmlns="http://www.w3.org/2000/svg">
<g clip-path="url(#clip0_7_99)">
<path d="M27.625 35V31.6667C27.625 29.8986 26.9402 28.2029 25.7212 26.9526C24.5022 25.7024 22.8489 25 21.125 25H8.125C6.40109 25 4.74779 25.7024 3.52881 26.9526C2.30982 28.2029 1.625 29.8986 1.625 31.6667V35M37.375 35V31.6667C37.3739 30.1895 36.8946 28.7546 36.0122 27.5872C35.1299 26.4198 33.8945 25.5859 32.5 25.2167M26 5.21667C27.3982 5.58384 28.6374 6.41784 29.5224 7.58718C30.4074 8.75653 30.8877 10.1947 30.8877 11.675C30.8877 13.1553 30.4074 14.5935 29.5224 15.7628C28.6374 16.9322 27.3982 17.7662 26 18.1333M21.125 11.6667C21.125 15.3486 18.2149 18.3333 14.625 18.3333C11.0351 18.3333 8.125 15.3486 8.125 11.6667C8.125 7.98477 11.0351 5 14.625 5C18.2149 5 21.125 7.98477 21.125 11.6667Z" stroke="#1E1E1E" stroke-width="4" stroke-linecap="round" stroke-linejoin="round"/>
</g>
<defs>
<clipPath id="clip0_7_99">
<rect width="39" height="40" fill="white"/>
</clipPath>
</defs>
</svg>
